<mxfile host="Electron" modified="2025-08-17T14:57:08.073Z" agent="Mozilla/5.0 (Windows NT 10.0; Win64; x64) AppleWebKit/537.36 (KHTML, like Gecko) draw.io/24.2.5 Chrome/120.0.6099.109 Electron/28.1.0 Safari/537.36" etag="dneYsJB6wN1dMB_C3T3g" version="24.2.5" type="device">
  <diagram name="第 1 页" id="Zq5hhHanniEglTwSSbnj">
    <mxGraphModel dx="2440" dy="1008" grid="0" gridSize="10" guides="1" tooltips="1" connect="1" arrows="1" fold="1" page="0" pageScale="1" pageWidth="827" pageHeight="1169" math="0" shadow="0">
      <root>
        <mxCell id="0" />
        <mxCell id="1" parent="0" />
        <mxCell id="NkAMQDXU337Zg2D86OC2-5" style="edgeStyle=orthogonalEdgeStyle;rounded=0;orthogonalLoop=1;jettySize=auto;html=1;exitX=1;exitY=0.5;exitDx=0;exitDy=0;entryX=0;entryY=0.5;entryDx=0;entryDy=0;strokeWidth=2;" edge="1" parent="1" source="NkAMQDXU337Zg2D86OC2-1" target="NkAMQDXU337Zg2D86OC2-4">
          <mxGeometry relative="1" as="geometry" />
        </mxCell>
        <mxCell id="NkAMQDXU337Zg2D86OC2-12" style="edgeStyle=orthogonalEdgeStyle;rounded=0;orthogonalLoop=1;jettySize=auto;html=1;exitX=0.5;exitY=1;exitDx=0;exitDy=0;strokeWidth=2;" edge="1" parent="1" source="NkAMQDXU337Zg2D86OC2-1" target="NkAMQDXU337Zg2D86OC2-9">
          <mxGeometry relative="1" as="geometry" />
        </mxCell>
        <mxCell id="NkAMQDXU337Zg2D86OC2-1" value="文件系统" style="rounded=1;whiteSpace=wrap;html=1;fillColor=#dae8fc;strokeColor=#6c8ebf;" vertex="1" parent="1">
          <mxGeometry x="80" y="450" width="250" height="130" as="geometry" />
        </mxCell>
        <mxCell id="NkAMQDXU337Zg2D86OC2-3" value="a.txt" style="rounded=1;whiteSpace=wrap;html=1;fillColor=#fff2cc;strokeColor=#d6b656;" vertex="1" parent="1">
          <mxGeometry x="100" y="470" width="65" height="40" as="geometry" />
        </mxCell>
        <mxCell id="NkAMQDXU337Zg2D86OC2-4" value="快照空间" style="rounded=1;whiteSpace=wrap;html=1;fillColor=#d5e8d4;strokeColor=#82b366;" vertex="1" parent="1">
          <mxGeometry x="480" y="450" width="110" height="130" as="geometry" />
        </mxCell>
        <mxCell id="NkAMQDXU337Zg2D86OC2-6" value="&lt;b&gt;初始创建快照&lt;/b&gt;" style="text;html=1;align=center;verticalAlign=middle;whiteSpace=wrap;rounded=0;" vertex="1" parent="1">
          <mxGeometry x="356" y="480" width="90" height="30" as="geometry" />
        </mxCell>
        <mxCell id="NkAMQDXU337Zg2D86OC2-14" style="edgeStyle=orthogonalEdgeStyle;rounded=0;orthogonalLoop=1;jettySize=auto;html=1;exitX=1;exitY=0.5;exitDx=0;exitDy=0;entryX=0;entryY=0.5;entryDx=0;entryDy=0;strokeWidth=2;" edge="1" parent="1" source="NkAMQDXU337Zg2D86OC2-9" target="NkAMQDXU337Zg2D86OC2-11">
          <mxGeometry relative="1" as="geometry" />
        </mxCell>
        <mxCell id="NkAMQDXU337Zg2D86OC2-17" style="edgeStyle=orthogonalEdgeStyle;rounded=0;orthogonalLoop=1;jettySize=auto;html=1;exitX=0.5;exitY=1;exitDx=0;exitDy=0;entryX=0.5;entryY=0;entryDx=0;entryDy=0;strokeWidth=2;" edge="1" parent="1" source="NkAMQDXU337Zg2D86OC2-9" target="NkAMQDXU337Zg2D86OC2-16">
          <mxGeometry relative="1" as="geometry" />
        </mxCell>
        <mxCell id="NkAMQDXU337Zg2D86OC2-9" value="文件系统" style="rounded=1;whiteSpace=wrap;html=1;fillColor=#dae8fc;strokeColor=#6c8ebf;" vertex="1" parent="1">
          <mxGeometry x="80" y="663" width="250" height="130" as="geometry" />
        </mxCell>
        <mxCell id="NkAMQDXU337Zg2D86OC2-10" value="a.txt(修改后)" style="rounded=1;whiteSpace=wrap;html=1;fillColor=#fff2cc;strokeColor=#d6b656;" vertex="1" parent="1">
          <mxGeometry x="93" y="677" width="86" height="40" as="geometry" />
        </mxCell>
        <mxCell id="NkAMQDXU337Zg2D86OC2-11" value="快照空间" style="rounded=1;whiteSpace=wrap;html=1;fillColor=#d5e8d4;strokeColor=#82b366;" vertex="1" parent="1">
          <mxGeometry x="480" y="663" width="110" height="130" as="geometry" />
        </mxCell>
        <mxCell id="NkAMQDXU337Zg2D86OC2-13" value="&lt;b&gt;修改a.txt&lt;/b&gt;" style="text;html=1;align=center;verticalAlign=middle;whiteSpace=wrap;rounded=0;" vertex="1" parent="1">
          <mxGeometry x="203" y="609" width="90" height="30" as="geometry" />
        </mxCell>
        <mxCell id="NkAMQDXU337Zg2D86OC2-15" value="a.txt" style="rounded=1;whiteSpace=wrap;html=1;fillColor=#fff2cc;strokeColor=#d6b656;" vertex="1" parent="1">
          <mxGeometry x="499" y="677" width="65" height="40" as="geometry" />
        </mxCell>
        <mxCell id="NkAMQDXU337Zg2D86OC2-21" style="edgeStyle=orthogonalEdgeStyle;rounded=0;orthogonalLoop=1;jettySize=auto;html=1;exitX=1;exitY=0.5;exitDx=0;exitDy=0;entryX=0;entryY=0.5;entryDx=0;entryDy=0;endSize=7;strokeWidth=2;" edge="1" parent="1" source="NkAMQDXU337Zg2D86OC2-16" target="NkAMQDXU337Zg2D86OC2-19">
          <mxGeometry relative="1" as="geometry" />
        </mxCell>
        <mxCell id="NkAMQDXU337Zg2D86OC2-27" style="edgeStyle=orthogonalEdgeStyle;rounded=0;orthogonalLoop=1;jettySize=auto;html=1;exitX=0.5;exitY=1;exitDx=0;exitDy=0;entryX=0.5;entryY=0;entryDx=0;entryDy=0;strokeWidth=2;" edge="1" parent="1" source="NkAMQDXU337Zg2D86OC2-16" target="NkAMQDXU337Zg2D86OC2-24">
          <mxGeometry relative="1" as="geometry" />
        </mxCell>
        <mxCell id="NkAMQDXU337Zg2D86OC2-16" value="文件系统" style="rounded=1;whiteSpace=wrap;html=1;fillColor=#dae8fc;strokeColor=#6c8ebf;" vertex="1" parent="1">
          <mxGeometry x="80" y="885" width="250" height="130" as="geometry" />
        </mxCell>
        <mxCell id="NkAMQDXU337Zg2D86OC2-18" value="&lt;b&gt;继续修改a.txt&lt;/b&gt;" style="text;html=1;align=center;verticalAlign=middle;whiteSpace=wrap;rounded=0;" vertex="1" parent="1">
          <mxGeometry x="218" y="829" width="90" height="30" as="geometry" />
        </mxCell>
        <mxCell id="NkAMQDXU337Zg2D86OC2-19" value="快照空间" style="rounded=1;whiteSpace=wrap;html=1;fillColor=#d5e8d4;strokeColor=#82b366;" vertex="1" parent="1">
          <mxGeometry x="480" y="885" width="110" height="130" as="geometry" />
        </mxCell>
        <mxCell id="NkAMQDXU337Zg2D86OC2-20" value="a.txt" style="rounded=1;whiteSpace=wrap;html=1;fillColor=#fff2cc;strokeColor=#d6b656;" vertex="1" parent="1">
          <mxGeometry x="499" y="891" width="65" height="40" as="geometry" />
        </mxCell>
        <mxCell id="NkAMQDXU337Zg2D86OC2-22" value="&lt;b&gt;快照空间不变&lt;/b&gt;" style="text;html=1;align=center;verticalAlign=middle;whiteSpace=wrap;rounded=0;" vertex="1" parent="1">
          <mxGeometry x="360" y="917" width="90" height="30" as="geometry" />
        </mxCell>
        <mxCell id="NkAMQDXU337Zg2D86OC2-23" value="a.txt(修改后2)" style="rounded=1;whiteSpace=wrap;html=1;fillColor=#fff2cc;strokeColor=#d6b656;" vertex="1" parent="1">
          <mxGeometry x="93" y="900" width="86" height="40" as="geometry" />
        </mxCell>
        <mxCell id="NkAMQDXU337Zg2D86OC2-32" style="edgeStyle=orthogonalEdgeStyle;rounded=0;orthogonalLoop=1;jettySize=auto;html=1;exitX=1;exitY=0.5;exitDx=0;exitDy=0;entryX=0;entryY=0.5;entryDx=0;entryDy=0;strokeWidth=2;" edge="1" parent="1" source="NkAMQDXU337Zg2D86OC2-24" target="NkAMQDXU337Zg2D86OC2-30">
          <mxGeometry relative="1" as="geometry" />
        </mxCell>
        <mxCell id="NkAMQDXU337Zg2D86OC2-37" style="edgeStyle=orthogonalEdgeStyle;rounded=0;orthogonalLoop=1;jettySize=auto;html=1;exitX=0.5;exitY=1;exitDx=0;exitDy=0;entryX=0.5;entryY=0;entryDx=0;entryDy=0;strokeWidth=2;" edge="1" parent="1" source="NkAMQDXU337Zg2D86OC2-24" target="NkAMQDXU337Zg2D86OC2-34">
          <mxGeometry relative="1" as="geometry" />
        </mxCell>
        <mxCell id="NkAMQDXU337Zg2D86OC2-24" value="文件系统" style="rounded=1;whiteSpace=wrap;html=1;fillColor=#dae8fc;strokeColor=#6c8ebf;" vertex="1" parent="1">
          <mxGeometry x="80" y="1105" width="250" height="130" as="geometry" />
        </mxCell>
        <mxCell id="NkAMQDXU337Zg2D86OC2-25" value="a.txt(修改后2)" style="rounded=1;whiteSpace=wrap;html=1;fillColor=#fff2cc;strokeColor=#d6b656;" vertex="1" parent="1">
          <mxGeometry x="93" y="1120" width="86" height="40" as="geometry" />
        </mxCell>
        <mxCell id="NkAMQDXU337Zg2D86OC2-26" value="b.txt" style="rounded=1;whiteSpace=wrap;html=1;fillColor=#fff2cc;strokeColor=#d6b656;" vertex="1" parent="1">
          <mxGeometry x="214" y="1120" width="86" height="40" as="geometry" />
        </mxCell>
        <mxCell id="NkAMQDXU337Zg2D86OC2-28" value="&lt;b&gt;首次创建b.txt&lt;/b&gt;" style="text;html=1;align=center;verticalAlign=middle;whiteSpace=wrap;rounded=0;" vertex="1" parent="1">
          <mxGeometry x="218" y="1042" width="90" height="30" as="geometry" />
        </mxCell>
        <mxCell id="NkAMQDXU337Zg2D86OC2-30" value="快照空间" style="rounded=1;whiteSpace=wrap;html=1;fillColor=#d5e8d4;strokeColor=#82b366;" vertex="1" parent="1">
          <mxGeometry x="476.5" y="1105" width="110" height="130" as="geometry" />
        </mxCell>
        <mxCell id="NkAMQDXU337Zg2D86OC2-31" value="a.txt" style="rounded=1;whiteSpace=wrap;html=1;fillColor=#fff2cc;strokeColor=#d6b656;" vertex="1" parent="1">
          <mxGeometry x="495.5" y="1111" width="65" height="40" as="geometry" />
        </mxCell>
        <mxCell id="NkAMQDXU337Zg2D86OC2-33" value="&lt;b&gt;快照空间不变&lt;/b&gt;" style="text;html=1;align=center;verticalAlign=middle;whiteSpace=wrap;rounded=0;" vertex="1" parent="1">
          <mxGeometry x="356" y="1130" width="90" height="30" as="geometry" />
        </mxCell>
        <mxCell id="NkAMQDXU337Zg2D86OC2-42" style="edgeStyle=orthogonalEdgeStyle;rounded=0;orthogonalLoop=1;jettySize=auto;html=1;exitX=1;exitY=0.5;exitDx=0;exitDy=0;entryX=0;entryY=0.5;entryDx=0;entryDy=0;strokeWidth=2;" edge="1" parent="1" source="NkAMQDXU337Zg2D86OC2-34" target="NkAMQDXU337Zg2D86OC2-41">
          <mxGeometry relative="1" as="geometry" />
        </mxCell>
        <mxCell id="NkAMQDXU337Zg2D86OC2-34" value="文件系统" style="rounded=1;whiteSpace=wrap;html=1;fillColor=#dae8fc;strokeColor=#6c8ebf;" vertex="1" parent="1">
          <mxGeometry x="80" y="1327" width="250" height="130" as="geometry" />
        </mxCell>
        <mxCell id="NkAMQDXU337Zg2D86OC2-35" value="b.txt（修改后）" style="rounded=1;whiteSpace=wrap;html=1;fillColor=#fff2cc;strokeColor=#d6b656;" vertex="1" parent="1">
          <mxGeometry x="214" y="1342" width="98" height="40" as="geometry" />
        </mxCell>
        <mxCell id="NkAMQDXU337Zg2D86OC2-36" value="a.txt(修改后2)" style="rounded=1;whiteSpace=wrap;html=1;fillColor=#fff2cc;strokeColor=#d6b656;" vertex="1" parent="1">
          <mxGeometry x="93" y="1342" width="86" height="40" as="geometry" />
        </mxCell>
        <mxCell id="NkAMQDXU337Zg2D86OC2-38" value="&lt;b&gt;修改b.txt&lt;/b&gt;" style="text;html=1;align=center;verticalAlign=middle;whiteSpace=wrap;rounded=0;" vertex="1" parent="1">
          <mxGeometry x="218" y="1272" width="90" height="30" as="geometry" />
        </mxCell>
        <mxCell id="NkAMQDXU337Zg2D86OC2-41" value="快照空间" style="rounded=1;whiteSpace=wrap;html=1;fillColor=#d5e8d4;strokeColor=#82b366;" vertex="1" parent="1">
          <mxGeometry x="476.5" y="1327" width="110" height="130" as="geometry" />
        </mxCell>
        <mxCell id="NkAMQDXU337Zg2D86OC2-44" value="a.txt" style="rounded=1;whiteSpace=wrap;html=1;fillColor=#fff2cc;strokeColor=#d6b656;" vertex="1" parent="1">
          <mxGeometry x="495.5" y="1335" width="65" height="40" as="geometry" />
        </mxCell>
        <mxCell id="NkAMQDXU337Zg2D86OC2-45" value="b.txt" style="rounded=1;whiteSpace=wrap;html=1;fillColor=#fff2cc;strokeColor=#d6b656;" vertex="1" parent="1">
          <mxGeometry x="495.5" y="1412" width="65" height="40" as="geometry" />
        </mxCell>
      </root>
    </mxGraphModel>
  </diagram>
</mxfile>
